<svg xmlns="http://www.w3.org/2000/svg" xmlns:xlink="http://www.w3.org/1999/xlink" width="46" zoomAndPan="magnify" viewBox="0 0 34.5 23.25" height="31" preserveAspectRatio="xMidYMid meet" version="1.0"><defs><g/><clipPath id="51f0542ebf"><path d="M 24 11 L 26.824219 11 L 26.824219 13 L 24 13 Z M 24 11 " clip-rule="nonzero"/></clipPath><clipPath id="6edc9eba52"><rect x="0" width="27" y="0" height="18"/></clipPath></defs><g transform="matrix(1, 0, 0, 1, 3, 2)"><g clip-path="url(#6edc9eba52)"><g fill="#0c3260" fill-opacity="1"><g transform="translate(0.33642, 12.994005)"><g><path d="M 1.0625 0 L 1.0625 -8.765625 L 4.9375 -8.765625 C 5.875 -8.765625 6.597656 -8.566406 7.109375 -8.171875 C 7.628906 -7.773438 7.890625 -7.21875 7.890625 -6.5 C 7.890625 -5.96875 7.75 -5.523438 7.46875 -5.171875 C 7.1875 -4.828125 6.804688 -4.59375 6.328125 -4.46875 L 6.328125 -4.5625 C 6.679688 -4.507812 6.992188 -4.390625 7.265625 -4.203125 C 7.535156 -4.023438 7.742188 -3.789062 7.890625 -3.5 C 8.046875 -3.207031 8.125 -2.859375 8.125 -2.453125 C 8.125 -1.929688 8.003906 -1.488281 7.765625 -1.125 C 7.523438 -0.757812 7.175781 -0.476562 6.71875 -0.28125 C 6.257812 -0.09375 5.710938 0 5.078125 0 Z M 2.65625 -1.28125 L 4.921875 -1.28125 C 5.140625 -1.28125 5.332031 -1.296875 5.5 -1.328125 C 5.675781 -1.359375 5.828125 -1.40625 5.953125 -1.46875 C 6.078125 -1.539062 6.179688 -1.628906 6.265625 -1.734375 C 6.347656 -1.835938 6.410156 -1.957031 6.453125 -2.09375 C 6.492188 -2.226562 6.515625 -2.375 6.515625 -2.53125 C 6.515625 -2.71875 6.492188 -2.875 6.453125 -3 C 6.410156 -3.132812 6.34375 -3.25 6.25 -3.34375 C 6.164062 -3.445312 6.0625 -3.53125 5.9375 -3.59375 C 5.820312 -3.664062 5.675781 -3.71875 5.5 -3.75 C 5.320312 -3.78125 5.128906 -3.796875 4.921875 -3.796875 L 2.65625 -3.796875 Z M 2.65625 -5.078125 L 4.71875 -5.078125 C 5.25 -5.078125 5.644531 -5.175781 5.90625 -5.375 C 6.164062 -5.582031 6.296875 -5.890625 6.296875 -6.296875 C 6.296875 -6.691406 6.164062 -6.988281 5.90625 -7.1875 C 5.644531 -7.382812 5.25 -7.484375 4.71875 -7.484375 L 2.65625 -7.484375 Z M 2.65625 -5.078125 "/></g></g></g><g fill="#0c3260" fill-opacity="1"><g transform="translate(8.2299, 12.994005)"><g><path d="M 3.015625 0.125 C 2.304688 0.125 1.773438 -0.0664062 1.421875 -0.453125 C 1.066406 -0.835938 0.890625 -1.398438 0.890625 -2.140625 L 0.890625 -8.765625 L 2.5 -8.765625 L 2.5 -2.234375 C 2.5 -2.003906 2.53125 -1.8125 2.59375 -1.65625 C 2.664062 -1.5 2.765625 -1.378906 2.890625 -1.296875 C 3.023438 -1.210938 3.191406 -1.171875 3.390625 -1.171875 C 3.492188 -1.171875 3.59375 -1.175781 3.6875 -1.1875 C 3.789062 -1.195312 3.894531 -1.21875 4 -1.25 L 4.015625 -0.015625 C 3.847656 0.0234375 3.6875 0.0546875 3.53125 0.078125 C 3.375 0.109375 3.203125 0.125 3.015625 0.125 Z M 3.015625 0.125 "/></g></g></g><g fill="#0c3260" fill-opacity="1"><g transform="translate(11.424543, 12.994005)"><g><path d="M 3.15625 0.125 C 2.65625 0.125 2.234375 0.03125 1.890625 -0.15625 C 1.546875 -0.351562 1.285156 -0.640625 1.109375 -1.015625 C 0.941406 -1.390625 0.859375 -1.863281 0.859375 -2.4375 L 0.859375 -6.140625 L 2.46875 -6.140625 L 2.46875 -2.453125 C 2.46875 -2.179688 2.507812 -1.945312 2.59375 -1.75 C 2.675781 -1.550781 2.800781 -1.40625 2.96875 -1.3125 C 3.132812 -1.21875 3.347656 -1.171875 3.609375 -1.171875 C 3.890625 -1.171875 4.140625 -1.234375 4.359375 -1.359375 C 4.578125 -1.492188 4.75 -1.679688 4.875 -1.921875 C 5 -2.160156 5.0625 -2.425781 5.0625 -2.71875 L 5.0625 -6.140625 L 6.671875 -6.140625 L 6.671875 0 L 5.15625 0 L 5.15625 -1.28125 L 5.25 -1.28125 C 5.0625 -0.832031 4.785156 -0.484375 4.421875 -0.234375 C 4.066406 0.00390625 3.644531 0.125 3.15625 0.125 Z M 3.15625 0.125 "/></g></g></g><g fill="#0c3260" fill-opacity="1"><g transform="translate(18.025222, 12.994005)"><g><path d="M 4.015625 0.125 C 3.285156 0.125 2.660156 0 2.140625 -0.25 C 1.628906 -0.507812 1.234375 -0.878906 0.953125 -1.359375 C 0.679688 -1.847656 0.546875 -2.421875 0.546875 -3.078125 C 0.546875 -3.691406 0.675781 -4.238281 0.9375 -4.71875 C 1.195312 -5.195312 1.5625 -5.570312 2.03125 -5.84375 C 2.507812 -6.125 3.0625 -6.265625 3.6875 -6.265625 C 4.28125 -6.265625 4.789062 -6.140625 5.21875 -5.890625 C 5.65625 -5.640625 5.988281 -5.28125 6.21875 -4.8125 C 6.457031 -4.34375 6.578125 -3.785156 6.578125 -3.140625 L 6.578125 -2.65625 L 1.84375 -2.65625 L 1.84375 -3.609375 L 5.4375 -3.609375 L 5.234375 -3.40625 C 5.234375 -3.976562 5.101562 -4.410156 4.84375 -4.703125 C 4.582031 -5.003906 4.210938 -5.15625 3.734375 -5.15625 C 3.390625 -5.15625 3.09375 -5.078125 2.84375 -4.921875 C 2.59375 -4.765625 2.398438 -4.546875 2.265625 -4.265625 C 2.128906 -3.984375 2.0625 -3.640625 2.0625 -3.234375 L 2.0625 -3.109375 C 2.0625 -2.648438 2.132812 -2.273438 2.28125 -1.984375 C 2.4375 -1.691406 2.660156 -1.472656 2.953125 -1.328125 C 3.253906 -1.191406 3.617188 -1.125 4.046875 -1.125 C 4.378906 -1.125 4.71875 -1.164062 5.0625 -1.25 C 5.40625 -1.34375 5.71875 -1.5 6 -1.71875 L 6.453125 -0.625 C 6.148438 -0.382812 5.773438 -0.195312 5.328125 -0.0625 C 4.890625 0.0625 4.453125 0.125 4.015625 0.125 Z M 4.015625 0.125 "/></g></g></g><g clip-path="url(#51f0542ebf)"><g fill="#4a9ed6" fill-opacity="1"><g transform="translate(24.165963, 12.994005)"><g><path d="M 0.71875 0 L 0.71875 -1.796875 L 2.578125 -1.796875 L 2.578125 0 Z M 0.71875 0 "/></g></g></g></g></g></g></svg>