<svg xmlns="http://www.w3.org/2000/svg" xmlns:xlink="http://www.w3.org/1999/xlink" width="23" zoomAndPan="magnify" viewBox="0 0 17.25 11.25" height="15" preserveAspectRatio="xMidYMid meet" version="1.0"><defs><g/><clipPath id="a65661ee6d"><rect x="0" width="14" y="0" height="9"/></clipPath></defs><g transform="matrix(1, 0, 0, 1, 1, 1)"><g clip-path="url(#a65661ee6d)"><g fill="#0c3260" fill-opacity="1"><g transform="translate(0.612525, 6.02962)"><g><path d="M 0.5 0 L 0.5 -4.109375 L 2.3125 -4.109375 C 2.75 -4.109375 3.085938 -4.015625 3.328125 -3.828125 C 3.578125 -3.640625 3.703125 -3.378906 3.703125 -3.046875 C 3.703125 -2.796875 3.632812 -2.585938 3.5 -2.421875 C 3.363281 -2.265625 3.1875 -2.15625 2.96875 -2.09375 L 2.96875 -2.140625 C 3.132812 -2.109375 3.28125 -2.050781 3.40625 -1.96875 C 3.53125 -1.882812 3.628906 -1.773438 3.703125 -1.640625 C 3.773438 -1.503906 3.8125 -1.335938 3.8125 -1.140625 C 3.8125 -0.898438 3.753906 -0.691406 3.640625 -0.515625 C 3.523438 -0.347656 3.359375 -0.21875 3.140625 -0.125 C 2.929688 -0.0390625 2.675781 0 2.375 0 Z M 1.234375 -0.59375 L 2.3125 -0.59375 C 2.40625 -0.59375 2.492188 -0.597656 2.578125 -0.609375 C 2.660156 -0.628906 2.726562 -0.65625 2.78125 -0.6875 C 2.84375 -0.71875 2.894531 -0.757812 2.9375 -0.8125 C 2.976562 -0.863281 3.003906 -0.921875 3.015625 -0.984375 C 3.035156 -1.046875 3.046875 -1.113281 3.046875 -1.1875 C 3.046875 -1.269531 3.035156 -1.34375 3.015625 -1.40625 C 3.003906 -1.46875 2.976562 -1.519531 2.9375 -1.5625 C 2.894531 -1.613281 2.84375 -1.65625 2.78125 -1.6875 C 2.726562 -1.71875 2.660156 -1.738281 2.578125 -1.75 C 2.492188 -1.769531 2.40625 -1.78125 2.3125 -1.78125 L 1.234375 -1.78125 Z M 1.234375 -2.375 L 2.203125 -2.375 C 2.453125 -2.375 2.640625 -2.421875 2.765625 -2.515625 C 2.890625 -2.609375 2.953125 -2.753906 2.953125 -2.953125 C 2.953125 -3.140625 2.890625 -3.28125 2.765625 -3.375 C 2.648438 -3.46875 2.460938 -3.515625 2.203125 -3.515625 L 1.234375 -3.515625 Z M 1.234375 -2.375 "/></g></g></g><g fill="#0c3260" fill-opacity="1"><g transform="translate(4.313215, 6.02962)"><g><path d="M 1.421875 0.0625 C 1.085938 0.0625 0.832031 -0.0234375 0.65625 -0.203125 C 0.488281 -0.390625 0.40625 -0.65625 0.40625 -1 L 0.40625 -4.109375 L 1.171875 -4.109375 L 1.171875 -1.046875 C 1.171875 -0.941406 1.1875 -0.851562 1.21875 -0.78125 C 1.25 -0.707031 1.296875 -0.648438 1.359375 -0.609375 C 1.421875 -0.566406 1.492188 -0.546875 1.578125 -0.546875 C 1.628906 -0.546875 1.675781 -0.546875 1.71875 -0.546875 C 1.769531 -0.554688 1.820312 -0.566406 1.875 -0.578125 L 1.875 0 C 1.800781 0.0078125 1.726562 0.0195312 1.65625 0.03125 C 1.582031 0.0507812 1.503906 0.0625 1.421875 0.0625 Z M 1.421875 0.0625 "/></g></g></g><g fill="#0c3260" fill-opacity="1"><g transform="translate(5.810956, 6.02962)"><g><path d="M 1.484375 0.0625 C 1.242188 0.0625 1.039062 0.0195312 0.875 -0.0625 C 0.71875 -0.15625 0.597656 -0.289062 0.515625 -0.46875 C 0.441406 -0.644531 0.40625 -0.867188 0.40625 -1.140625 L 0.40625 -2.875 L 1.15625 -2.875 L 1.15625 -1.140625 C 1.15625 -1.015625 1.171875 -0.90625 1.203125 -0.8125 C 1.242188 -0.726562 1.304688 -0.660156 1.390625 -0.609375 C 1.472656 -0.566406 1.570312 -0.546875 1.6875 -0.546875 C 1.820312 -0.546875 1.941406 -0.578125 2.046875 -0.640625 C 2.148438 -0.703125 2.226562 -0.785156 2.28125 -0.890625 C 2.34375 -1.003906 2.375 -1.132812 2.375 -1.28125 L 2.375 -2.875 L 3.125 -2.875 L 3.125 0 L 2.40625 0 L 2.40625 -0.59375 L 2.453125 -0.59375 C 2.367188 -0.382812 2.242188 -0.222656 2.078125 -0.109375 C 1.910156 0.00390625 1.710938 0.0625 1.484375 0.0625 Z M 1.484375 0.0625 "/></g></g></g><g fill="#0c3260" fill-opacity="1"><g transform="translate(8.905543, 6.02962)"><g><path d="M 1.875 0.0625 C 1.539062 0.0625 1.25 0.00390625 1 -0.109375 C 0.757812 -0.234375 0.570312 -0.410156 0.4375 -0.640625 C 0.3125 -0.867188 0.25 -1.132812 0.25 -1.4375 C 0.25 -1.726562 0.3125 -1.984375 0.4375 -2.203125 C 0.5625 -2.429688 0.734375 -2.609375 0.953125 -2.734375 C 1.171875 -2.867188 1.429688 -2.9375 1.734375 -2.9375 C 2.003906 -2.9375 2.238281 -2.875 2.4375 -2.75 C 2.644531 -2.632812 2.800781 -2.46875 2.90625 -2.25 C 3.019531 -2.03125 3.078125 -1.769531 3.078125 -1.46875 L 3.078125 -1.234375 L 0.859375 -1.234375 L 0.859375 -1.6875 L 2.546875 -1.6875 L 2.453125 -1.59375 C 2.453125 -1.863281 2.390625 -2.066406 2.265625 -2.203125 C 2.148438 -2.335938 1.976562 -2.40625 1.75 -2.40625 C 1.59375 -2.40625 1.453125 -2.367188 1.328125 -2.296875 C 1.210938 -2.234375 1.125 -2.132812 1.0625 -2 C 1 -1.863281 0.96875 -1.703125 0.96875 -1.515625 L 0.96875 -1.453125 C 0.96875 -1.242188 1 -1.066406 1.0625 -0.921875 C 1.132812 -0.785156 1.238281 -0.6875 1.375 -0.625 C 1.519531 -0.5625 1.695312 -0.53125 1.90625 -0.53125 C 2.0625 -0.53125 2.21875 -0.550781 2.375 -0.59375 C 2.53125 -0.632812 2.675781 -0.703125 2.8125 -0.796875 L 3.03125 -0.296875 C 2.882812 -0.179688 2.707031 -0.09375 2.5 -0.03125 C 2.289062 0.03125 2.082031 0.0625 1.875 0.0625 Z M 1.875 0.0625 "/></g></g></g><g fill="#4a9ed6" fill-opacity="1"><g transform="translate(11.784499, 6.02962)"><g><path d="M 0.34375 0 L 0.34375 -0.84375 L 1.203125 -0.84375 L 1.203125 0 Z M 0.34375 0 "/></g></g></g></g></g></svg>