<svg xmlns="http://www.w3.org/2000/svg" xmlns:xlink="http://www.w3.org/1999/xlink" viewBox="0 0 375 187.499995" preserveAspectRatio="xMidYMid meet" version="1.0"><defs><g/><clipPath id="16e87a588a"><path d="M 0.5 0 L 373 0 L 373 187 L 0.5 187 Z M 0.5 0 " clip-rule="nonzero"/></clipPath><clipPath id="9166881243"><rect x="0" width="373" y="0" height="187"/></clipPath></defs><g clip-path="url(#16e87a588a)"><g transform="matrix(1, 0, 0, 1, 0, 0)"><g clip-path="url(#9166881243)"><g fill="#0c3260" fill-opacity="1"><g transform="translate(-6.345004, 155.829286)"><g><path d="M 15.109375 0 L 15.109375 -125.3125 L 70.5625 -125.3125 C 83.957031 -125.3125 94.359375 -122.46875 101.765625 -116.78125 C 109.171875 -111.09375 112.875 -103.09375 112.875 -92.78125 C 112.875 -85.195312 110.828125 -78.914062 106.734375 -73.9375 C 102.648438 -68.96875 97.226562 -65.59375 90.46875 -63.8125 L 90.46875 -65.234375 C 95.570312 -64.398438 100.046875 -62.679688 103.890625 -60.078125 C 107.742188 -57.472656 110.738281 -54.09375 112.875 -49.9375 C 115.007812 -45.789062 116.078125 -40.816406 116.078125 -35.015625 C 116.078125 -27.671875 114.359375 -21.359375 110.921875 -16.078125 C 107.484375 -10.804688 102.503906 -6.804688 95.984375 -4.078125 C 89.460938 -1.359375 81.640625 0 72.515625 0 Z M 37.859375 -18.3125 L 70.390625 -18.3125 C 73.472656 -18.3125 76.226562 -18.546875 78.65625 -19.015625 C 81.082031 -19.492188 83.210938 -20.207031 85.046875 -21.15625 C 86.890625 -22.101562 88.398438 -23.316406 89.578125 -24.796875 C 90.765625 -26.273438 91.65625 -27.992188 92.25 -29.953125 C 92.84375 -31.910156 93.140625 -34.015625 93.140625 -36.265625 C 93.140625 -38.867188 92.84375 -41.117188 92.25 -43.015625 C 91.65625 -44.910156 90.734375 -46.566406 89.484375 -47.984375 C 88.242188 -49.410156 86.734375 -50.597656 84.953125 -51.546875 C 83.179688 -52.492188 81.050781 -53.175781 78.5625 -53.59375 C 76.070312 -54.007812 73.347656 -54.21875 70.390625 -54.21875 L 37.859375 -54.21875 Z M 37.859375 -72.515625 L 67.375 -72.515625 C 74.957031 -72.515625 80.613281 -73.96875 84.34375 -76.875 C 88.070312 -79.78125 89.9375 -84.132812 89.9375 -89.9375 C 89.9375 -95.625 88.097656 -99.890625 84.421875 -102.734375 C 80.753906 -105.578125 75.070312 -107 67.375 -107 L 37.859375 -107 Z M 37.859375 -72.515625 "/></g></g></g><g fill="#0c3260" fill-opacity="1"><g transform="translate(106.52219, 155.829286)"><g><path d="M 43.1875 1.78125 C 33 1.78125 25.359375 -0.972656 20.265625 -6.484375 C 15.171875 -11.992188 12.625 -20.023438 12.625 -30.578125 L 12.625 -125.3125 L 35.734375 -125.3125 L 35.734375 -32 C 35.734375 -28.675781 36.207031 -25.890625 37.15625 -23.640625 C 38.101562 -21.390625 39.523438 -19.671875 41.421875 -18.484375 C 43.316406 -17.296875 45.625 -16.703125 48.34375 -16.703125 C 49.882812 -16.703125 51.363281 -16.789062 52.78125 -16.96875 C 54.207031 -17.144531 55.632812 -17.414062 57.0625 -17.78125 L 57.40625 -0.171875 C 55.039062 0.421875 52.734375 0.894531 50.484375 1.25 C 48.234375 1.601562 45.800781 1.78125 43.1875 1.78125 Z M 43.1875 1.78125 "/></g></g></g><g fill="#0c3260" fill-opacity="1"><g transform="translate(152.201721, 155.829286)"><g><path d="M 45.15625 1.78125 C 37.925781 1.78125 31.847656 0.414062 26.921875 -2.3125 C 22.003906 -5.039062 18.332031 -9.097656 15.90625 -14.484375 C 13.476562 -19.878906 12.265625 -26.664062 12.265625 -34.84375 L 12.265625 -87.8125 L 35.375 -87.8125 L 35.375 -35.015625 C 35.375 -31.109375 35.9375 -27.757812 37.0625 -24.96875 C 38.1875 -22.1875 39.960938 -20.113281 42.390625 -18.75 C 44.816406 -17.382812 47.867188 -16.703125 51.546875 -16.703125 C 55.578125 -16.703125 59.160156 -17.648438 62.296875 -19.546875 C 65.441406 -21.441406 67.898438 -24.078125 69.671875 -27.453125 C 71.453125 -30.835938 72.34375 -34.660156 72.34375 -38.921875 L 72.34375 -87.8125 L 95.453125 -87.8125 L 95.453125 0 L 73.59375 0 L 73.59375 -18.3125 L 75.015625 -18.3125 C 72.285156 -11.90625 68.375 -6.953125 63.28125 -3.453125 C 58.1875 0.0351562 52.144531 1.78125 45.15625 1.78125 Z M 45.15625 1.78125 "/></g></g></g><g fill="#0c3260" fill-opacity="1"><g transform="translate(246.583423, 155.829286)"><g><path d="M 57.40625 1.78125 C 46.976562 1.78125 38.0625 -0.0546875 30.65625 -3.734375 C 23.25 -7.410156 17.59375 -12.679688 13.6875 -19.546875 C 9.78125 -26.421875 7.828125 -34.539062 7.828125 -43.90625 C 7.828125 -52.789062 9.691406 -60.640625 13.421875 -67.453125 C 17.148438 -74.265625 22.390625 -79.65625 29.140625 -83.625 C 35.898438 -87.601562 43.785156 -89.59375 52.796875 -89.59375 C 61.203125 -89.59375 68.484375 -87.785156 74.640625 -84.171875 C 80.804688 -80.554688 85.578125 -75.398438 88.953125 -68.703125 C 92.335938 -62.003906 94.03125 -54.035156 94.03125 -44.796875 L 94.03125 -37.859375 L 26.3125 -37.859375 L 26.3125 -51.546875 L 77.671875 -51.546875 L 74.828125 -48.703125 C 74.828125 -56.878906 72.960938 -63.070312 69.234375 -67.28125 C 65.503906 -71.488281 60.203125 -73.59375 53.328125 -73.59375 C 48.460938 -73.59375 44.253906 -72.492188 40.703125 -70.296875 C 37.148438 -68.109375 34.394531 -65 32.4375 -60.96875 C 30.476562 -56.9375 29.5 -52.019531 29.5 -46.21875 L 29.5 -44.4375 C 29.5 -37.914062 30.566406 -32.550781 32.703125 -28.34375 C 34.835938 -24.144531 38.035156 -21.035156 42.296875 -19.015625 C 46.566406 -17.003906 51.785156 -16 57.953125 -16 C 62.691406 -16 67.519531 -16.648438 72.4375 -17.953125 C 77.351562 -19.253906 81.828125 -21.445312 85.859375 -24.53125 L 92.25 -8.890625 C 87.863281 -5.453125 82.5 -2.8125 76.15625 -0.96875 C 69.820312 0.863281 63.570312 1.78125 57.40625 1.78125 Z M 57.40625 1.78125 "/></g></g></g><g fill="#4a9ed6" fill-opacity="1"><g transform="translate(334.388588, 155.829286)"><g><path d="M 10.3125 0 L 10.3125 -25.59375 L 36.796875 -25.59375 L 36.796875 0 Z M 10.3125 0 "/></g></g></g></g></g></g></svg>