<svg xmlns="http://www.w3.org/2000/svg" xmlns:xlink="http://www.w3.org/1999/xlink" width="42" zoomAndPan="magnify" viewBox="0 0 31.5 20.25" height="27" preserveAspectRatio="xMidYMid meet" version="1.0"><defs><g/><clipPath id="de200644b1"><rect x="0" width="26" y="0" height="17"/></clipPath></defs><g transform="matrix(1, 0, 0, 1, 2, 1)"><g clip-path="url(#de200644b1)"><g fill="#f0f7ff" fill-opacity="1"><g transform="translate(1.048631, 11.471617)"><g><path d="M 0.953125 0 L 0.953125 -7.859375 L 4.421875 -7.859375 C 5.265625 -7.859375 5.914062 -7.679688 6.375 -7.328125 C 6.84375 -6.972656 7.078125 -6.472656 7.078125 -5.828125 C 7.078125 -5.347656 6.945312 -4.953125 6.6875 -4.640625 C 6.4375 -4.328125 6.097656 -4.113281 5.671875 -4 L 5.671875 -4.09375 C 5.992188 -4.039062 6.273438 -3.929688 6.515625 -3.765625 C 6.765625 -3.609375 6.953125 -3.398438 7.078125 -3.140625 C 7.210938 -2.878906 7.28125 -2.566406 7.28125 -2.203125 C 7.28125 -1.734375 7.171875 -1.332031 6.953125 -1 C 6.742188 -0.675781 6.429688 -0.425781 6.015625 -0.25 C 5.609375 -0.0820312 5.117188 0 4.546875 0 Z M 2.375 -1.15625 L 4.421875 -1.15625 C 4.609375 -1.15625 4.78125 -1.164062 4.9375 -1.1875 C 5.09375 -1.21875 5.226562 -1.265625 5.34375 -1.328125 C 5.457031 -1.390625 5.550781 -1.46875 5.625 -1.5625 C 5.695312 -1.65625 5.75 -1.757812 5.78125 -1.875 C 5.820312 -2 5.84375 -2.132812 5.84375 -2.28125 C 5.84375 -2.4375 5.820312 -2.570312 5.78125 -2.6875 C 5.75 -2.8125 5.691406 -2.914062 5.609375 -3 C 5.535156 -3.09375 5.441406 -3.171875 5.328125 -3.234375 C 5.222656 -3.296875 5.09375 -3.335938 4.9375 -3.359375 C 4.78125 -3.390625 4.609375 -3.40625 4.421875 -3.40625 L 2.375 -3.40625 Z M 2.375 -4.546875 L 4.234375 -4.546875 C 4.703125 -4.546875 5.050781 -4.632812 5.28125 -4.8125 C 5.519531 -5 5.640625 -5.273438 5.640625 -5.640625 C 5.640625 -6.003906 5.523438 -6.273438 5.296875 -6.453125 C 5.066406 -6.628906 4.710938 -6.71875 4.234375 -6.71875 L 2.375 -6.71875 Z M 2.375 -4.546875 "/></g></g></g><g fill="#f0f7ff" fill-opacity="1"><g transform="translate(8.131129, 11.471617)"><g><path d="M 2.71875 0.109375 C 2.070312 0.109375 1.585938 -0.0625 1.265625 -0.40625 C 0.953125 -0.75 0.796875 -1.253906 0.796875 -1.921875 L 0.796875 -7.859375 L 2.25 -7.859375 L 2.25 -2.015625 C 2.25 -1.804688 2.273438 -1.628906 2.328125 -1.484375 C 2.390625 -1.335938 2.476562 -1.226562 2.59375 -1.15625 C 2.71875 -1.082031 2.863281 -1.046875 3.03125 -1.046875 C 3.125 -1.046875 3.21875 -1.050781 3.3125 -1.0625 C 3.40625 -1.070312 3.492188 -1.085938 3.578125 -1.109375 L 3.609375 -0.015625 C 3.453125 0.0234375 3.300781 0.0546875 3.15625 0.078125 C 3.019531 0.0976562 2.875 0.109375 2.71875 0.109375 Z M 2.71875 0.109375 "/></g></g></g><g fill="#f0f7ff" fill-opacity="1"><g transform="translate(10.997565, 11.471617)"><g><path d="M 2.828125 0.109375 C 2.378906 0.109375 2 0.0234375 1.6875 -0.140625 C 1.382812 -0.316406 1.15625 -0.570312 1 -0.90625 C 0.84375 -1.25 0.765625 -1.675781 0.765625 -2.1875 L 0.765625 -5.515625 L 2.21875 -5.515625 L 2.21875 -2.203125 C 2.21875 -1.953125 2.253906 -1.738281 2.328125 -1.5625 C 2.398438 -1.394531 2.507812 -1.265625 2.65625 -1.171875 C 2.8125 -1.085938 3.003906 -1.046875 3.234375 -1.046875 C 3.484375 -1.046875 3.707031 -1.101562 3.90625 -1.21875 C 4.101562 -1.34375 4.257812 -1.507812 4.375 -1.71875 C 4.488281 -1.9375 4.546875 -2.175781 4.546875 -2.4375 L 4.546875 -5.515625 L 5.984375 -5.515625 L 5.984375 0 L 4.625 0 L 4.625 -1.15625 L 4.703125 -1.15625 C 4.535156 -0.75 4.289062 -0.4375 3.96875 -0.21875 C 3.644531 0 3.265625 0.109375 2.828125 0.109375 Z M 2.828125 0.109375 "/></g></g></g><g fill="#f0f7ff" fill-opacity="1"><g transform="translate(16.920089, 11.471617)"><g><path d="M 3.609375 0.109375 C 2.953125 0.109375 2.390625 -0.00390625 1.921875 -0.234375 C 1.460938 -0.460938 1.109375 -0.789062 0.859375 -1.21875 C 0.609375 -1.65625 0.484375 -2.164062 0.484375 -2.75 C 0.484375 -3.3125 0.597656 -3.804688 0.828125 -4.234375 C 1.066406 -4.660156 1.398438 -5 1.828125 -5.25 C 2.253906 -5.5 2.75 -5.625 3.3125 -5.625 C 3.84375 -5.625 4.300781 -5.507812 4.6875 -5.28125 C 5.070312 -5.050781 5.367188 -4.726562 5.578125 -4.3125 C 5.796875 -3.894531 5.90625 -3.394531 5.90625 -2.8125 L 5.90625 -2.375 L 1.65625 -2.375 L 1.65625 -3.234375 L 4.875 -3.234375 L 4.703125 -3.0625 C 4.703125 -3.570312 4.582031 -3.957031 4.34375 -4.21875 C 4.113281 -4.488281 3.78125 -4.625 3.34375 -4.625 C 3.039062 -4.625 2.773438 -4.550781 2.546875 -4.40625 C 2.328125 -4.269531 2.15625 -4.078125 2.03125 -3.828125 C 1.914062 -3.578125 1.859375 -3.269531 1.859375 -2.90625 L 1.859375 -2.796875 C 1.859375 -2.378906 1.921875 -2.039062 2.046875 -1.78125 C 2.179688 -1.519531 2.382812 -1.320312 2.65625 -1.1875 C 2.925781 -1.0625 3.253906 -1 3.640625 -1 C 3.929688 -1 4.234375 -1.039062 4.546875 -1.125 C 4.859375 -1.207031 5.140625 -1.347656 5.390625 -1.546875 L 5.796875 -0.5625 C 5.515625 -0.34375 5.175781 -0.175781 4.78125 -0.0625 C 4.382812 0.0507812 3.992188 0.109375 3.609375 0.109375 Z M 3.609375 0.109375 "/></g></g></g><g fill="#4a9ed6" fill-opacity="1"><g transform="translate(22.439095, 11.471617)"><g><path d="M 0.640625 0 L 0.640625 -1.609375 L 2.3125 -1.609375 L 2.3125 0 Z M 0.640625 0 "/></g></g></g></g></g></svg>