<svg xmlns="http://www.w3.org/2000/svg" xmlns:xlink="http://www.w3.org/1999/xlink" width="51" zoomAndPan="magnify" viewBox="0 0 38.25 24.75" height="33" preserveAspectRatio="xMidYMid meet" version="1.0"><defs><g/><clipPath id="c038b122d7"><rect x="0" width="32" y="0" height="20"/></clipPath></defs><g transform="matrix(1, 0, 0, 1, 3, 2)"><g clip-path="url(#c038b122d7)"><g fill="#0c3260" fill-opacity="1"><g transform="translate(0.419415, 14.27638)"><g><path d="M 1.1875 0 L 1.1875 -9.859375 L 5.546875 -9.859375 C 6.597656 -9.859375 7.414062 -9.632812 8 -9.1875 C 8.582031 -8.738281 8.875 -8.109375 8.875 -7.296875 C 8.875 -6.703125 8.710938 -6.207031 8.390625 -5.8125 C 8.078125 -5.425781 7.65625 -5.160156 7.125 -5.015625 L 7.125 -5.125 C 7.519531 -5.0625 7.867188 -4.925781 8.171875 -4.71875 C 8.472656 -4.519531 8.707031 -4.253906 8.875 -3.921875 C 9.039062 -3.597656 9.125 -3.207031 9.125 -2.75 C 9.125 -2.175781 8.988281 -1.679688 8.71875 -1.265625 C 8.457031 -0.847656 8.066406 -0.53125 7.546875 -0.3125 C 7.035156 -0.101562 6.421875 0 5.703125 0 Z M 2.984375 -1.4375 L 5.53125 -1.4375 C 5.78125 -1.4375 6 -1.453125 6.1875 -1.484375 C 6.375 -1.523438 6.539062 -1.582031 6.6875 -1.65625 C 6.832031 -1.738281 6.953125 -1.835938 7.046875 -1.953125 C 7.140625 -2.066406 7.207031 -2.203125 7.25 -2.359375 C 7.300781 -2.515625 7.328125 -2.679688 7.328125 -2.859375 C 7.328125 -3.054688 7.300781 -3.226562 7.25 -3.375 C 7.207031 -3.53125 7.132812 -3.660156 7.03125 -3.765625 C 6.9375 -3.878906 6.816406 -3.972656 6.671875 -4.046875 C 6.535156 -4.128906 6.367188 -4.1875 6.171875 -4.21875 C 5.984375 -4.25 5.769531 -4.265625 5.53125 -4.265625 L 2.984375 -4.265625 Z M 2.984375 -5.703125 L 5.296875 -5.703125 C 5.890625 -5.703125 6.332031 -5.816406 6.625 -6.046875 C 6.925781 -6.273438 7.078125 -6.617188 7.078125 -7.078125 C 7.078125 -7.523438 6.929688 -7.859375 6.640625 -8.078125 C 6.347656 -8.304688 5.898438 -8.421875 5.296875 -8.421875 L 2.984375 -8.421875 Z M 2.984375 -5.703125 "/></g></g></g><g fill="#0c3260" fill-opacity="1"><g transform="translate(9.289147, 14.27638)"><g><path d="M 3.390625 0.140625 C 2.597656 0.140625 2 -0.0703125 1.59375 -0.5 C 1.195312 -0.9375 1 -1.570312 1 -2.40625 L 1 -9.859375 L 2.8125 -9.859375 L 2.8125 -2.515625 C 2.8125 -2.253906 2.847656 -2.035156 2.921875 -1.859375 C 2.992188 -1.679688 3.101562 -1.546875 3.25 -1.453125 C 3.40625 -1.359375 3.585938 -1.3125 3.796875 -1.3125 C 3.921875 -1.3125 4.039062 -1.316406 4.15625 -1.328125 C 4.269531 -1.347656 4.378906 -1.375 4.484375 -1.40625 L 4.515625 -0.015625 C 4.328125 0.0351562 4.144531 0.0703125 3.96875 0.09375 C 3.789062 0.125 3.597656 0.140625 3.390625 0.140625 Z M 3.390625 0.140625 "/></g></g></g><g fill="#0c3260" fill-opacity="1"><g transform="translate(12.878238, 14.27638)"><g><path d="M 3.546875 0.140625 C 2.984375 0.140625 2.503906 0.0351562 2.109375 -0.171875 C 1.722656 -0.390625 1.4375 -0.710938 1.25 -1.140625 C 1.0625 -1.566406 0.96875 -2.097656 0.96875 -2.734375 L 0.96875 -6.90625 L 2.78125 -6.90625 L 2.78125 -2.75 C 2.78125 -2.445312 2.820312 -2.1875 2.90625 -1.96875 C 3 -1.75 3.140625 -1.582031 3.328125 -1.46875 C 3.523438 -1.363281 3.769531 -1.3125 4.0625 -1.3125 C 4.375 -1.3125 4.648438 -1.382812 4.890625 -1.53125 C 5.140625 -1.6875 5.332031 -1.894531 5.46875 -2.15625 C 5.613281 -2.425781 5.6875 -2.726562 5.6875 -3.0625 L 5.6875 -6.90625 L 7.515625 -6.90625 L 7.515625 0 L 5.796875 0 L 5.796875 -1.4375 L 5.90625 -1.4375 C 5.6875 -0.9375 5.375 -0.546875 4.96875 -0.265625 C 4.570312 0.00390625 4.097656 0.140625 3.546875 0.140625 Z M 3.546875 0.140625 "/></g></g></g><g fill="#0c3260" fill-opacity="1"><g transform="translate(20.295099, 14.27638)"><g><path d="M 4.515625 0.140625 C 3.691406 0.140625 2.988281 -0.00390625 2.40625 -0.296875 C 1.820312 -0.585938 1.375 -1 1.0625 -1.53125 C 0.757812 -2.070312 0.609375 -2.710938 0.609375 -3.453125 C 0.609375 -4.148438 0.753906 -4.765625 1.046875 -5.296875 C 1.347656 -5.835938 1.765625 -6.265625 2.296875 -6.578125 C 2.828125 -6.890625 3.445312 -7.046875 4.15625 -7.046875 C 4.8125 -7.046875 5.378906 -6.898438 5.859375 -6.609375 C 6.347656 -6.328125 6.722656 -5.921875 6.984375 -5.390625 C 7.253906 -4.867188 7.390625 -4.25 7.390625 -3.53125 L 7.390625 -2.984375 L 2.0625 -2.984375 L 2.0625 -4.0625 L 6.109375 -4.0625 L 5.890625 -3.828125 C 5.890625 -4.472656 5.738281 -4.960938 5.4375 -5.296875 C 5.144531 -5.628906 4.734375 -5.796875 4.203125 -5.796875 C 3.816406 -5.796875 3.484375 -5.707031 3.203125 -5.53125 C 2.921875 -5.351562 2.703125 -5.109375 2.546875 -4.796875 C 2.398438 -4.484375 2.328125 -4.097656 2.328125 -3.640625 L 2.328125 -3.5 C 2.328125 -2.988281 2.410156 -2.566406 2.578125 -2.234375 C 2.742188 -1.898438 2.992188 -1.65625 3.328125 -1.5 C 3.660156 -1.34375 4.070312 -1.265625 4.5625 -1.265625 C 4.9375 -1.265625 5.316406 -1.3125 5.703125 -1.40625 C 6.085938 -1.507812 6.4375 -1.6875 6.75 -1.9375 L 7.265625 -0.703125 C 6.910156 -0.429688 6.484375 -0.222656 5.984375 -0.078125 C 5.492188 0.0664062 5.003906 0.140625 4.515625 0.140625 Z M 4.515625 0.140625 "/></g></g></g><g fill="#4a9ed6" fill-opacity="1"><g transform="translate(27.197717, 14.27638)"><g><path d="M 0.8125 0 L 0.8125 -2.015625 L 2.890625 -2.015625 L 2.890625 0 Z M 0.8125 0 "/></g></g></g></g></g></svg>