<svg xmlns="http://www.w3.org/2000/svg" xmlns:xlink="http://www.w3.org/1999/xlink" width="40" zoomAndPan="magnify" viewBox="0 0 30 30.000001" height="40" preserveAspectRatio="xMidYMid meet" version="1.0"><defs><g/><clipPath id="8a85a1eae2"><path d="M 0.484375 0 L 29.515625 0 L 29.515625 29.03125 L 0.484375 29.03125 Z M 0.484375 0 " clip-rule="nonzero"/></clipPath><clipPath id="8becb58c01"><path d="M 3 0 L 26 0 L 26 29.03125 L 3 29.03125 Z M 3 0 " clip-rule="nonzero"/></clipPath><clipPath id="b2c418c33f"><path d="M 18 19 L 22.800781 19 L 22.800781 24 L 18 24 Z M 18 19 " clip-rule="nonzero"/></clipPath><clipPath id="3d625577ba"><rect x="0" width="23" y="0" height="30"/></clipPath></defs><g clip-path="url(#8a85a1eae2)"><path fill="#ffffff" d="M 0.484375 0 L 29.515625 0 L 29.515625 29.03125 L 0.484375 29.03125 Z M 0.484375 0 " fill-opacity="1" fill-rule="nonzero"/><path fill="#f0f7ff" d="M 0.484375 0 L 29.515625 0 L 29.515625 29.03125 L 0.484375 29.03125 Z M 0.484375 0 " fill-opacity="1" fill-rule="nonzero"/></g><g clip-path="url(#8becb58c01)"><g transform="matrix(1, 0, 0, 1, 3, 0.000000000000005692)"><g clip-path="url(#3d625577ba)"><g fill="#0c3260" fill-opacity="1"><g transform="translate(0.266651, 23.107946)"><g><path d="M 2.234375 0 L 2.234375 -18.578125 L 10.453125 -18.578125 C 12.441406 -18.578125 13.984375 -18.15625 15.078125 -17.3125 C 16.179688 -16.46875 16.734375 -15.28125 16.734375 -13.75 C 16.734375 -12.625 16.425781 -11.691406 15.8125 -10.953125 C 15.207031 -10.222656 14.40625 -9.722656 13.40625 -9.453125 L 13.40625 -9.671875 C 14.164062 -9.546875 14.828125 -9.289062 15.390625 -8.90625 C 15.960938 -8.519531 16.40625 -8.019531 16.71875 -7.40625 C 17.039062 -6.789062 17.203125 -6.050781 17.203125 -5.1875 C 17.203125 -4.101562 16.945312 -3.171875 16.4375 -2.390625 C 15.925781 -1.609375 15.1875 -1.015625 14.21875 -0.609375 C 13.257812 -0.203125 12.101562 0 10.75 0 Z M 5.609375 -2.71875 L 10.4375 -2.71875 C 10.882812 -2.71875 11.289062 -2.75 11.65625 -2.8125 C 12.019531 -2.882812 12.335938 -2.988281 12.609375 -3.125 C 12.878906 -3.269531 13.101562 -3.453125 13.28125 -3.671875 C 13.457031 -3.890625 13.585938 -4.144531 13.671875 -4.4375 C 13.753906 -4.726562 13.796875 -5.039062 13.796875 -5.375 C 13.796875 -5.757812 13.753906 -6.09375 13.671875 -6.375 C 13.585938 -6.65625 13.453125 -6.898438 13.265625 -7.109375 C 13.078125 -7.316406 12.851562 -7.488281 12.59375 -7.625 C 12.332031 -7.769531 12.015625 -7.875 11.640625 -7.9375 C 11.273438 -8 10.875 -8.03125 10.4375 -8.03125 L 5.609375 -8.03125 Z M 5.609375 -10.75 L 9.984375 -10.75 C 11.109375 -10.75 11.945312 -10.960938 12.5 -11.390625 C 13.050781 -11.828125 13.328125 -12.472656 13.328125 -13.328125 C 13.328125 -14.171875 13.054688 -14.800781 12.515625 -15.21875 C 11.972656 -15.644531 11.128906 -15.859375 9.984375 -15.859375 L 5.609375 -15.859375 Z M 5.609375 -10.75 "/></g></g></g><g clip-path="url(#b2c418c33f)"><g fill="#4a9ed6" fill-opacity="1"><g transform="translate(16.779957, 23.107946)"><g><path d="M 1.53125 0 L 1.53125 -3.796875 L 5.453125 -3.796875 L 5.453125 0 Z M 1.53125 0 "/></g></g></g></g></g></g></g></svg>