<svg xmlns="http://www.w3.org/2000/svg" xmlns:xlink="http://www.w3.org/1999/xlink" width="180" zoomAndPan="magnify" viewBox="0 0 135 135.000003" height="180" preserveAspectRatio="xMidYMid meet" version="1.0"><defs><g/><clipPath id="c498d0ca1a"><path d="M 0.496094 0 L 134.503906 0 L 134.503906 134.007812 L 0.496094 134.007812 Z M 0.496094 0 " clip-rule="nonzero"/></clipPath><clipPath id="7b4156eb80"><path d="M 13 0 L 117 0 L 117 134.007812 L 13 134.007812 Z M 13 0 " clip-rule="nonzero"/></clipPath><clipPath id="18bff6e1b5"><rect x="0" width="104" y="0" height="135"/></clipPath></defs><g clip-path="url(#c498d0ca1a)"><path fill="#ffffff" d="M 0.496094 0 L 134.503906 0 L 134.503906 134.007812 L 0.496094 134.007812 Z M 0.496094 0 " fill-opacity="1" fill-rule="nonzero"/><path fill="#f0f7ff" d="M 0.496094 0 L 134.503906 0 L 134.503906 134.007812 L 0.496094 134.007812 Z M 0.496094 0 " fill-opacity="1" fill-rule="nonzero"/></g><g clip-path="url(#7b4156eb80)"><g transform="matrix(1, 0, 0, 1, 13, -0.000000000000003367)"><g clip-path="url(#18bff6e1b5)"><g fill="#0c3260" fill-opacity="1"><g transform="translate(0.341103, 106.661855)"><g><path d="M 10.328125 0 L 10.328125 -85.703125 L 48.265625 -85.703125 C 57.421875 -85.703125 64.53125 -83.753906 69.59375 -79.859375 C 74.65625 -75.972656 77.1875 -70.503906 77.1875 -63.453125 C 77.1875 -58.265625 75.785156 -53.96875 72.984375 -50.5625 C 70.191406 -47.164062 66.488281 -44.859375 61.875 -43.640625 L 61.875 -44.609375 C 65.363281 -44.046875 68.421875 -42.867188 71.046875 -41.078125 C 73.679688 -39.296875 75.726562 -36.988281 77.1875 -34.15625 C 78.644531 -31.320312 79.375 -27.921875 79.375 -23.953125 C 79.375 -18.921875 78.195312 -14.601562 75.84375 -11 C 73.5 -7.394531 70.097656 -4.660156 65.640625 -2.796875 C 61.179688 -0.929688 55.832031 0 49.59375 0 Z M 25.890625 -12.515625 L 48.140625 -12.515625 C 50.242188 -12.515625 52.125 -12.675781 53.78125 -13 C 55.445312 -13.332031 56.90625 -13.820312 58.15625 -14.46875 C 59.414062 -15.113281 60.453125 -15.941406 61.265625 -16.953125 C 62.078125 -17.972656 62.6875 -19.148438 63.09375 -20.484375 C 63.5 -21.816406 63.703125 -23.253906 63.703125 -24.796875 C 63.703125 -26.578125 63.5 -28.113281 63.09375 -29.40625 C 62.6875 -30.707031 62.054688 -31.84375 61.203125 -32.8125 C 60.359375 -33.789062 59.328125 -34.601562 58.109375 -35.25 C 56.890625 -35.894531 55.425781 -36.359375 53.71875 -36.640625 C 52.019531 -36.929688 50.160156 -37.078125 48.140625 -37.078125 L 25.890625 -37.078125 Z M 25.890625 -49.59375 L 46.078125 -49.59375 C 51.265625 -49.59375 55.132812 -50.582031 57.6875 -52.5625 C 60.238281 -54.550781 61.515625 -57.535156 61.515625 -61.515625 C 61.515625 -65.398438 60.253906 -68.316406 57.734375 -70.265625 C 55.222656 -72.210938 51.335938 -73.1875 46.078125 -73.1875 L 25.890625 -73.1875 Z M 25.890625 -49.59375 "/></g></g></g><g fill="#4a9ed6" fill-opacity="1"><g transform="translate(76.563365, 106.661855)"><g><path d="M 7.046875 0 L 7.046875 -17.5 L 25.15625 -17.5 L 25.15625 0 Z M 7.046875 0 "/></g></g></g></g></g></g></svg>