<!-- Print size: 56mm × 70mm | Bleed: 3mm | Die-cut: Rounded rectangle -->
<svg xmlns="http://www.w3.org/2000/svg" viewBox="0 0 560 700" width="560" height="700">
  <rect width="560" height="700" fill="#FFFFFF"/>

  <!-- Bleed area -->
  <rect x="0" y="0" width="560" height="700" rx="44" fill="#F0F7FF"/>

  <!-- Die-cut border -->
  <rect x="6" y="6" width="548" height="688" rx="40" fill="none" stroke="#0C3260" stroke-width="4"/>

  <!-- Upper panel: whisper blue with QR -->
  <rect x="6" y="6" width="548" height="519" rx="40" fill="#F0F7FF"/>

  <!-- QR Code - Decorative -->
  <g transform="translate(155, 80)">
    <!-- Top-left finder -->
    <rect x="0" y="0" width="42" height="42" fill="#0C3260"/>
    <rect x="6" y="6" width="30" height="30" fill="#F0F7FF"/>
    <rect x="12" y="12" width="18" height="18" fill="#0C3260"/>

    <!-- Top-right finder -->
    <rect x="208" y="0" width="42" height="42" fill="#0C3260"/>
    <rect x="214" y="6" width="30" height="30" fill="#F0F7FF"/>
    <rect x="220" y="12" width="18" height="18" fill="#0C3260"/>

    <!-- Bottom-left finder -->
    <rect x="0" y="208" width="42" height="42" fill="#0C3260"/>
    <rect x="6" y="214" width="30" height="30" fill="#F0F7FF"/>
    <rect x="12" y="220" width="18" height="18" fill="#0C3260"/>

    <!-- Data grid - navy squares -->
    <rect x="54" y="6" width="12" height="12" fill="#0C3260"/>
    <rect x="78" y="6" width="12" height="12" fill="#0C3260"/>
    <rect x="102" y="18" width="12" height="12" fill="#0C3260"/>
    <rect x="126" y="6" width="12" height="12" fill="#0C3260"/>
    <rect x="150" y="12" width="12" height="12" fill="#0C3260"/>
    <rect x="174" y="0" width="12" height="12" fill="#0C3260"/>
    <rect x="54" y="30" width="12" height="12" fill="#0C3260"/>
    <rect x="90" y="36" width="12" height="12" fill="#0C3260"/>
    <rect x="138" y="30" width="12" height="12" fill="#0C3260"/>
    <rect x="162" y="36" width="12" height="12" fill="#0C3260"/>

    <rect x="54" y="54" width="12" height="12" fill="#0C3260"/>
    <rect x="78" y="66" width="12" height="12" fill="#0C3260"/>
    <rect x="102" y="54" width="12" height="12" fill="#0C3260"/>
    <rect x="126" y="72" width="12" height="12" fill="#0C3260"/>
    <rect x="150" y="54" width="12" height="12" fill="#0C3260"/>
    <rect x="174" y="60" width="12" height="12" fill="#0C3260"/>
    <rect x="54" y="90" width="12" height="12" fill="#0C3260"/>
    <rect x="78" y="96" width="12" height="12" fill="#0C3260"/>
    <rect x="114" y="90" width="12" height="12" fill="#0C3260"/>
    <rect x="138" y="102" width="12" height="12" fill="#0C3260"/>

    <rect x="6" y="54" width="12" height="12" fill="#0C3260"/>
    <rect x="18" y="78" width="12" height="12" fill="#0C3260"/>
    <rect x="6" y="102" width="12" height="12" fill="#0C3260"/>
    <rect x="30" y="114" width="12" height="12" fill="#0C3260"/>
    <rect x="6" y="138" width="12" height="12" fill="#0C3260"/>
    <rect x="24" y="162" width="12" height="12" fill="#0C3260"/>
    <rect x="6" y="186" width="12" height="12" fill="#0C3260"/>

    <rect x="54" y="126" width="12" height="12" fill="#0C3260"/>
    <rect x="90" y="138" width="12" height="12" fill="#0C3260"/>
    <rect x="66" y="162" width="12" height="12" fill="#0C3260"/>
    <rect x="102" y="150" width="12" height="12" fill="#0C3260"/>
    <rect x="126" y="138" width="12" height="12" fill="#0C3260"/>
    <rect x="54" y="186" width="12" height="12" fill="#0C3260"/>
    <rect x="90" y="198" width="12" height="12" fill="#0C3260"/>
    <rect x="66" y="216" width="12" height="12" fill="#0C3260"/>

    <!-- Cyan cluster - bottom right -->
    <rect x="174" y="138" width="12" height="12" fill="#4A9ED6"/>
    <rect x="198" y="138" width="12" height="12" fill="#4A9ED6"/>
    <rect x="222" y="138" width="12" height="12" fill="#4A9ED6"/>
    <rect x="174" y="156" width="12" height="12" fill="#4A9ED6"/>
    <rect x="198" y="156" width="12" height="12" fill="#4A9ED6"/>
    <rect x="222" y="156" width="12" height="12" fill="#4A9ED6"/>
    <rect x="174" y="174" width="12" height="12" fill="#4A9ED6"/>
    <rect x="198" y="174" width="12" height="12" fill="#4A9ED6"/>
    <rect x="222" y="174" width="12" height="12" fill="#4A9ED6"/>
    <rect x="210" y="198" width="12" height="12" fill="#4A9ED6"/>
    <rect x="222" y="210" width="12" height="12" fill="#4A9ED6"/>
    <rect x="234" y="192" width="12" height="12" fill="#4A9ED6"/>

    <rect x="162" y="174" width="12" height="12" fill="#0C3260"/>
    <rect x="150" y="198" width="12" height="12" fill="#0C3260"/>
    <rect x="138" y="174" width="12" height="12" fill="#0C3260"/>
    <rect x="210" y="120" width="12" height="12" fill="#0C3260"/>
    <rect x="234" y="108" width="12" height="12" fill="#0C3260"/>
    <rect x="210" y="96" width="12" height="12" fill="#0C3260"/>
    <rect x="234" y="66" width="12" height="12" fill="#0C3260"/>
    <rect x="210" y="54" width="12" height="12" fill="#0C3260"/>
    <rect x="234" y="78" width="12" height="12" fill="#0C3260"/>
  </g>

  <!-- Cyan divider -->
  <line x1="6" y1="525" x2="554" y2="525" stroke="#4A9ED6" stroke-width="2"/>

  <!-- Navy footer -->
  <rect x="6" y="525" width="548" height="169" rx="0" fill="#0C3260"/>
  <rect x="6" y="654" width="40" height="40" rx="40" fill="#0C3260"/>
  <rect x="514" y="654" width="40" height="40" rx="40" fill="#0C3260"/>

  <!-- Scan it. -->
  <text x="280" y="590" text-anchor="middle" font-family="Arial, Helvetica, sans-serif" font-size="48" font-weight="700" fill="#FFFFFF">Scan it.</text>

  <!-- Know it. -->
  <text x="280" y="640" text-anchor="middle" font-family="Arial, Helvetica, sans-serif" font-size="48" font-weight="700" fill="#4A9ED6">Know it.</text>

  <!-- tracetheblue.com -->
  <text x="280" y="672" text-anchor="middle" font-family="Arial, Helvetica, sans-serif" font-size="14" fill="#4A9ED6" letter-spacing="2">tracetheblue.com</text>
</svg>
